<mxfile host="app.diagrams.net" modified="2020-06-14T14:58:31.341Z" agent="5.0 (Windows NT 10.0; Win64; x64) AppleWebKit/537.36 (KHTML, like Gecko) Chrome/83.0.4103.97 Safari/537.36" etag="AFs6f1a7M-ZStUfn7rHZ" version="13.2.4" type="github">
  <diagram id="xE8kh47unp0ZR-aAJUwq" name="Page-1">
    <mxGraphModel dx="730" dy="461" grid="1" gridSize="10" guides="1" tooltips="1" connect="1" arrows="1" fold="1" page="1" pageScale="1" pageWidth="827" pageHeight="1169" math="0" shadow="0">
      <root>
        <mxCell id="0" />
        <mxCell id="1" parent="0" />
        <mxCell id="hH1dXWXVu9WMB23AjIk2-31" style="edgeStyle=orthogonalEdgeStyle;rounded=0;orthogonalLoop=1;jettySize=auto;html=1;exitX=1;exitY=0.5;exitDx=0;exitDy=0;" parent="1" source="hH1dXWXVu9WMB23AjIk2-1" target="hH1dXWXVu9WMB23AjIk2-3" edge="1">
          <mxGeometry relative="1" as="geometry" />
        </mxCell>
        <mxCell id="hH1dXWXVu9WMB23AjIk2-1" value="" style="rounded=1;whiteSpace=wrap;html=1;" parent="1" vertex="1">
          <mxGeometry x="80" y="80" width="160" height="440" as="geometry" />
        </mxCell>
        <mxCell id="hH1dXWXVu9WMB23AjIk2-33" style="edgeStyle=orthogonalEdgeStyle;rounded=0;orthogonalLoop=1;jettySize=auto;html=1;entryX=0;entryY=0.5;entryDx=0;entryDy=0;" parent="1" source="hH1dXWXVu9WMB23AjIk2-3" target="hH1dXWXVu9WMB23AjIk2-20" edge="1">
          <mxGeometry relative="1" as="geometry" />
        </mxCell>
        <mxCell id="hH1dXWXVu9WMB23AjIk2-3" value="" style="rounded=1;whiteSpace=wrap;html=1;" parent="1" vertex="1">
          <mxGeometry x="281.25" y="80" width="158.75" height="440" as="geometry" />
        </mxCell>
        <mxCell id="hH1dXWXVu9WMB23AjIk2-6" value="Arp + Vocal" style="rounded=1;whiteSpace=wrap;html=1;fillColor=#f8cecc;strokeColor=#b85450;" parent="1" vertex="1">
          <mxGeometry x="108.75" y="120" width="102.5" height="60" as="geometry" />
        </mxCell>
        <mxCell id="hH1dXWXVu9WMB23AjIk2-8" value="Pad" style="rounded=1;whiteSpace=wrap;html=1;fillColor=#fff2cc;strokeColor=#d6b656;" parent="1" vertex="1">
          <mxGeometry x="108.75" y="200" width="102.5" height="50" as="geometry" />
        </mxCell>
        <mxCell id="hH1dXWXVu9WMB23AjIk2-11" value="Verse" style="text;html=1;strokeColor=none;fillColor=none;align=center;verticalAlign=middle;whiteSpace=wrap;rounded=0;" parent="1" vertex="1">
          <mxGeometry x="140" y="90" width="40" height="20" as="geometry" />
        </mxCell>
        <mxCell id="hH1dXWXVu9WMB23AjIk2-12" value="Pre Build Up" style="text;html=1;strokeColor=none;fillColor=none;align=center;verticalAlign=middle;whiteSpace=wrap;rounded=0;" parent="1" vertex="1">
          <mxGeometry x="312.5" y="85" width="95" height="30" as="geometry" />
        </mxCell>
        <mxCell id="hH1dXWXVu9WMB23AjIk2-13" value="Vocal &lt;br&gt;+ &lt;br&gt;EQ incomplete Melody" style="rounded=1;whiteSpace=wrap;html=1;fillColor=#f8cecc;strokeColor=#b85450;" parent="1" vertex="1">
          <mxGeometry x="312.5" y="120" width="95" height="60" as="geometry" />
        </mxCell>
        <mxCell id="hH1dXWXVu9WMB23AjIk2-14" value="Pad &lt;br&gt;+ &lt;br&gt;Chord Pluck" style="rounded=1;whiteSpace=wrap;html=1;fillColor=#fff2cc;strokeColor=#d6b656;" parent="1" vertex="1">
          <mxGeometry x="315" y="200" width="95" height="50" as="geometry" />
        </mxCell>
        <mxCell id="hH1dXWXVu9WMB23AjIk2-17" value="Build Up Drum" style="rounded=1;whiteSpace=wrap;html=1;fillColor=#a0522d;strokeColor=#6D1F00;fontColor=#ffffff;" parent="1" vertex="1">
          <mxGeometry x="312.5" y="350" width="95" height="50" as="geometry" />
        </mxCell>
        <mxCell id="hH1dXWXVu9WMB23AjIk2-38" style="edgeStyle=orthogonalEdgeStyle;rounded=0;orthogonalLoop=1;jettySize=auto;html=1;" parent="1" source="hH1dXWXVu9WMB23AjIk2-20" target="hH1dXWXVu9WMB23AjIk2-36" edge="1">
          <mxGeometry relative="1" as="geometry" />
        </mxCell>
        <mxCell id="hH1dXWXVu9WMB23AjIk2-20" value="" style="rounded=1;whiteSpace=wrap;html=1;" parent="1" vertex="1">
          <mxGeometry x="480" y="80" width="157.5" height="440" as="geometry" />
        </mxCell>
        <mxCell id="hH1dXWXVu9WMB23AjIk2-21" value="Pre Chorus" style="text;html=1;strokeColor=none;fillColor=none;align=center;verticalAlign=middle;whiteSpace=wrap;rounded=0;" parent="1" vertex="1">
          <mxGeometry x="523.25" y="90" width="71" height="20" as="geometry" />
        </mxCell>
        <mxCell id="hH1dXWXVu9WMB23AjIk2-22" value="&amp;nbsp;Melody" style="rounded=1;whiteSpace=wrap;html=1;fillColor=#f8cecc;strokeColor=#b85450;" parent="1" vertex="1">
          <mxGeometry x="511.25" y="120" width="95" height="60" as="geometry" />
        </mxCell>
        <mxCell id="hH1dXWXVu9WMB23AjIk2-23" value="Pad &lt;br&gt;+ &lt;br&gt;Chord Pluck" style="rounded=1;whiteSpace=wrap;html=1;fillColor=#fff2cc;strokeColor=#d6b656;" parent="1" vertex="1">
          <mxGeometry x="511.25" y="200" width="95" height="50" as="geometry" />
        </mxCell>
        <mxCell id="hH1dXWXVu9WMB23AjIk2-24" value="Rolling High BASS" style="rounded=1;whiteSpace=wrap;html=1;fillColor=#d5e8d4;strokeColor=#82b366;" parent="1" vertex="1">
          <mxGeometry x="511.25" y="275" width="95" height="50" as="geometry" />
        </mxCell>
        <mxCell id="hH1dXWXVu9WMB23AjIk2-25" value="" style="rounded=1;whiteSpace=wrap;html=1;fillColor=#d5e8d4;strokeColor=#82b366;" parent="1" vertex="1">
          <mxGeometry x="312.5" y="275" width="95" height="50" as="geometry" />
        </mxCell>
        <mxCell id="hH1dXWXVu9WMB23AjIk2-26" value="" style="rounded=1;whiteSpace=wrap;html=1;fillColor=#d5e8d4;strokeColor=#82b366;" parent="1" vertex="1">
          <mxGeometry x="112.5" y="275" width="95" height="50" as="geometry" />
        </mxCell>
        <mxCell id="hH1dXWXVu9WMB23AjIk2-27" value="Reverse Stuff" style="rounded=1;whiteSpace=wrap;html=1;fillColor=#dae8fc;strokeColor=#6c8ebf;" parent="1" vertex="1">
          <mxGeometry x="312.5" y="430" width="95" height="50" as="geometry" />
        </mxCell>
        <mxCell id="hH1dXWXVu9WMB23AjIk2-28" value="Reverse Stuff" style="rounded=1;whiteSpace=wrap;html=1;fillColor=#dae8fc;strokeColor=#6c8ebf;" parent="1" vertex="1">
          <mxGeometry x="112.5" y="430" width="95" height="50" as="geometry" />
        </mxCell>
        <mxCell id="hH1dXWXVu9WMB23AjIk2-29" value="Clap" style="rounded=1;whiteSpace=wrap;html=1;fillColor=#a0522d;strokeColor=#6D1F00;fontColor=#ffffff;" parent="1" vertex="1">
          <mxGeometry x="511.25" y="350" width="95" height="50" as="geometry" />
        </mxCell>
        <mxCell id="hH1dXWXVu9WMB23AjIk2-30" value="Reverse Stuff" style="rounded=1;whiteSpace=wrap;html=1;fillColor=#dae8fc;strokeColor=#6c8ebf;" parent="1" vertex="1">
          <mxGeometry x="511.25" y="430" width="95" height="50" as="geometry" />
        </mxCell>
        <mxCell id="hH1dXWXVu9WMB23AjIk2-35" value="" style="rounded=1;whiteSpace=wrap;html=1;fillColor=#a0522d;strokeColor=#6D1F00;fontColor=#ffffff;" parent="1" vertex="1">
          <mxGeometry x="112.5" y="350" width="95" height="50" as="geometry" />
        </mxCell>
        <mxCell id="hH1dXWXVu9WMB23AjIk2-36" value="" style="rounded=1;whiteSpace=wrap;html=1;" parent="1" vertex="1">
          <mxGeometry x="680" y="80" width="157.5" height="440" as="geometry" />
        </mxCell>
        <mxCell id="hH1dXWXVu9WMB23AjIk2-37" value="Build Up" style="text;html=1;strokeColor=none;fillColor=none;align=center;verticalAlign=middle;whiteSpace=wrap;rounded=0;" parent="1" vertex="1">
          <mxGeometry x="710" y="90" width="100" height="20" as="geometry" />
        </mxCell>
        <mxCell id="hH1dXWXVu9WMB23AjIk2-40" value="Pad &lt;br&gt;+ &lt;br&gt;Chord Pluck&lt;br&gt;+&lt;br&gt;Noise Chord Pluck" style="rounded=1;whiteSpace=wrap;html=1;fillColor=#fff2cc;strokeColor=#d6b656;" parent="1" vertex="1">
          <mxGeometry x="706.25" y="200" width="107.5" height="130" as="geometry" />
        </mxCell>
        <mxCell id="hH1dXWXVu9WMB23AjIk2-41" value="Build Up Drum&lt;br&gt;+&lt;br&gt;Uplifter" style="rounded=1;whiteSpace=wrap;html=1;fillColor=#a0522d;strokeColor=#6D1F00;fontColor=#ffffff;" parent="1" vertex="1">
          <mxGeometry x="712.5" y="350" width="95" height="50" as="geometry" />
        </mxCell>
        <mxCell id="hH1dXWXVu9WMB23AjIk2-42" value="Reverse Stuff" style="rounded=1;whiteSpace=wrap;html=1;fillColor=#dae8fc;strokeColor=#6c8ebf;" parent="1" vertex="1">
          <mxGeometry x="712.5" y="430" width="95" height="50" as="geometry" />
        </mxCell>
        <mxCell id="hH1dXWXVu9WMB23AjIk2-43" value="Vocal &lt;br&gt;+ &lt;br&gt;EQ incomplete Melody" style="rounded=1;whiteSpace=wrap;html=1;fillColor=#f8cecc;strokeColor=#b85450;" parent="1" vertex="1">
          <mxGeometry x="712.5" y="120" width="95" height="60" as="geometry" />
        </mxCell>
        <mxCell id="hH1dXWXVu9WMB23AjIk2-44" value="" style="rounded=1;whiteSpace=wrap;html=1;" parent="1" vertex="1">
          <mxGeometry x="880" y="80" width="157.5" height="440" as="geometry" />
        </mxCell>
        <mxCell id="hH1dXWXVu9WMB23AjIk2-45" value="Drop" style="text;html=1;strokeColor=none;fillColor=none;align=center;verticalAlign=middle;whiteSpace=wrap;rounded=0;" parent="1" vertex="1">
          <mxGeometry x="910" y="90" width="100" height="20" as="geometry" />
        </mxCell>
        <mxCell id="hH1dXWXVu9WMB23AjIk2-46" value="&lt;br&gt;Noise Chord Pluck" style="rounded=1;whiteSpace=wrap;html=1;fillColor=#fff2cc;strokeColor=#d6b656;" parent="1" vertex="1">
          <mxGeometry x="906.25" y="200" width="107.5" height="130" as="geometry" />
        </mxCell>
        <mxCell id="hH1dXWXVu9WMB23AjIk2-47" value="Hard Kick&lt;br&gt;+&lt;br&gt;Kick" style="rounded=1;whiteSpace=wrap;html=1;fillColor=#a0522d;strokeColor=#6D1F00;fontColor=#ffffff;" parent="1" vertex="1">
          <mxGeometry x="912.5" y="350" width="95" height="50" as="geometry" />
        </mxCell>
        <mxCell id="hH1dXWXVu9WMB23AjIk2-48" value="Reverse Stuff" style="rounded=1;whiteSpace=wrap;html=1;fillColor=#dae8fc;strokeColor=#6c8ebf;" parent="1" vertex="1">
          <mxGeometry x="912.5" y="430" width="95" height="50" as="geometry" />
        </mxCell>
        <mxCell id="hH1dXWXVu9WMB23AjIk2-49" value="&amp;nbsp;Melody" style="rounded=1;whiteSpace=wrap;html=1;fillColor=#f8cecc;strokeColor=#b85450;" parent="1" vertex="1">
          <mxGeometry x="912.5" y="120" width="95" height="60" as="geometry" />
        </mxCell>
      </root>
    </mxGraphModel>
  </diagram>
</mxfile>
